<svg id="eWfzLMSQ0Iw1" xmlns="http://www.w3.org/2000/svg" xmlns:xlink="http://www.w3.org/1999/xlink" viewBox="0 0 1280 1024" shape-rendering="geometricPrecision" text-rendering="geometricPrecision"><g><path d="M888.5,282.5c0-4.7-4.7-4.7-9.4-4.7s-60.9-4.7-60.9-4.7-37.5-37.4-42.2-42.1c0,0,0,0-4.7,0L743.2,887.2v0l225-46.9c0-4.6-79.7-553.1-79.7-557.8Z" transform="translate(-.15-.3)" fill="#fff"/><path d="M762,226.3c0,0-9.4,0-23.4,4.7-14.1-37.5-37.5-70.3-79.7-70.3h-4.7c-9.4-18.8-23.4-23.4-37.5-23.4-98.4,0-145.3,121.9-159.4,182.8-37.5,9.4-60.9,18.8-65.6,18.8-23.4,9.4-23.4,9.4-23.4,28.1c0,14.1-56.2,440.6-56.2,440.6L734,887.3l28-661v0ZM654.2,254.4v0c-23.4,14.1-51.6,18.8-75,28.1c14.1-56.3,42.2-84.4,65.6-93.8c4.7,18.8,9.4,37.6,9.4,65.7Zm-42.2-89v0c4.7,0,9.4,0,14.1,4.7C598,184.2,560.5,217,546.4,292c-18.8,4.7-37.5,14.1-56.3,18.8c14.1-56.4,56.2-145.4,121.9-145.4Zm18.7,323.4v0c0,0-28.1-14.1-56.2-14.1-46.9,0-46.9,28.1-46.9,37.5c0,37.5,103.1,51.6,103.1,145.3c0,70.3-46.9,117.2-107.8,117.2-75,0-112.5-46.9-112.5-46.9l18.8-65.6c0,0,37.5,32.8,70.3,32.8c23.4,0,28.1-18.8,28.1-28.1c0-51.6-84.4-51.6-84.4-135.9c0-70.3,46.9-135.9,150-135.9c37.5,0,56.2,9.4,56.2,9.4l-18.7,84.3Zm46.9-239.1v-4.7c0-23.4-4.7-42.2-9.4-56.3v0v0v0c23.4,0,37.5,28.1,46.9,56.3-14.1,0-23.4,4.7-37.5,4.7Z" transform="translate(-.15-.3)" fill="#fff"/></g></svg>